<?xml version="1.0" encoding="utf-8"?>
<?xml-stylesheet type="text/xsl" href="rss1.xsl"?>
<rss version="2.0" xmlns:atom="http://www.w3.org/2005/Atom" xmlns:content="http://purl.org/rss/1.0/modules/content/" xmlns:dc="http://purl.org/dc/elements/1.1/" xmlns:media="http://search.yahoo.com/mrss/">
<channel>
 <title>Getty</title>
 <link>http://www.gettyimg.com/</link>
 <atom:link href="http://www.gettyimg.com/" rel="self" type="application/rss+xml" />

 
                <item>
                <title><![CDATA[【MASTER &amp; MASTER RIP】MASTER - The Weeknd, Madonna, Playboi Carti - Popular (Master 4K)]]></title>
                <link><![CDATA[https://sharemania.us/threads/the-weeknd-madonna-playboi-carti-popular-master-4k.238139/]]></link>
                <description><![CDATA[<article>
<blockquote class="messageText SelectQuoteContainer ugc baseHtml">
<div style="text-align: center"><img src="https://i.imgur.com/VjpOHIh.gif" class="bbCodeImage LbImage" alt="[​IMG]" data-url="https://i.imgur.com/VjpOHIh.gif" style=""><br>
​</div>
<div class="ToggleTriggerAnchor bbCodeSpoilerContainer">
<button type="button" class="button bbCodeSpoilerButton ToggleTrigger Tooltip JsOnly" data-target="> .SpoilerTarget"><span>Spoiler: <span class="SpoilerTitle">MASTER</span></span></button>
<div class="SpoilerTarget bbCodeSpoilerText">
<div class="bbCodeBlock bbCodeCode">
<div class="type">Code:</div>
<pre>Format                                   : MPEG-4
Format profile                           : Base Media / Version 2
Codec ID                                 : mp42 (mp42/mp41)
File size                                : 1.64 GiB
Duration                                 : 3 min 50 s
Overall bit rate mode                    : Variable
Overall bit rate                         : 61.1 Mb/s
Encoded date                             : UTC 2024-02-20 04:43:37
Tagged date                              : UTC 2024-02-20 04:45:30
TIM                                      : 00:03:28:07
TSC                                      : 24
TSZ                                      : 1

Video
ID                                       : 1
Format                                   : AVC
Format/Info                              : Advanced Video Codec
Format profile                           : Main@L5.1
Format settings                          : CABAC / 2 Ref Frames
Format settings, CABAC                   : Yes
Format settings, Reference frames        : 2 frames
Codec ID                                 : avc1
Codec ID/Info                            : Advanced Video Coding
Duration                                 : 3 min 50 s
Bit rate                                 : 60.8 Mb/s
Width                                    : 3 840 pixels
Height                                   : 2 160 pixels
Display aspect ratio                     : 16:9
Frame rate mode                          : Constant
Frame rate                               : 24.000 FPS
Color space                              : YUV
Chroma subsampling                       : 4:2:0
Bit depth                                : 8 bits
Scan type                                : Progressive
Bits/(Pixel*Frame)                       : 0.305
Stream size                              : 1.63 GiB (99%)
Language                                 : English
Encoded date                             : UTC 2024-02-20 04:43:37
Tagged date                              : UTC 2024-02-20 04:43:37
Color range                              : Limited
Color primaries                          : BT.709
Transfer characteristics                 : BT.709
Matrix coefficients                      : BT.709
Codec configuration box                  : avcC

Audio
ID                                       : 2
Format                                   : AAC LC
Format/Info                              : Advanced Audio Codec Low Complexity
Codec ID                                 : mp4a-40-2
Duration                                 : 3 min 50 s
Source duration                          : 3 min 50 s
Bit rate mode                            : Variable
Bit rate                                 : 317 kb/s
Maximum bit rate                         : 435 kb/s
Channel(s)                               : 2 channels
Channel layout                           : L R
Sampling rate                            : 48.0 kHz
Frame rate                               : 46.875 FPS (1024 SPF)
Compression mode                         : Lossy
Stream size                              : 8.72 MiB (1%)
Source stream size                       : 8.72 MiB (1%)
Language                                 : English
Encoded date                             : UTC 2024-02-20 04:43:38
Tagged date                              : UTC 2024-02-20 04:43:38
</pre>
</div><div style="text-align: center">​</div></div>
</div><div style="text-align: center"><br>
<br>
<div class="bbCodeBlock bbCodeVfcHH HiddenContent">
<div class="attribution type">Hidden Content:</div>
<blockquote>You must reply before you can see the hidden data contained here.</blockquote>
</div></div>
<div class="messageTextEndMarker">&nbsp;</div>
</blockquote>
</article>]]></description>
                <author><![CDATA[fstambuk]]></author>
                </item>

                
                <item>
                <title><![CDATA[【Requests】[REQ VID] - Delta Goodrem - Live at BBC Radio 2s Piano Room - 20 Feb 2024]]></title>
                <link><![CDATA[https://sharemania.us/threads/delta-goodrem-live-at-bbc-radio-2s-piano-room-20-feb-2024.238137/]]></link>
                <description><![CDATA[<article>
<blockquote class="messageText SelectQuoteContainer ugc baseHtml">
thanks
<div class="messageTextEndMarker">&nbsp;</div>
</blockquote>
</article>]]></description>
                <author><![CDATA[ahoyhoy]]></author>
                </item>

                
                <item>
                <title><![CDATA[【Requests】[REQ VID] - V Factory - Love truck]]></title>
                <link><![CDATA[https://sharemania.us/threads/v-factory-love-truck.238138/]]></link>
                <description><![CDATA[<article>
<blockquote class="messageText SelectQuoteContainer ugc baseHtml">
Yesss, Thanks / Obrigadão
<div class="messageTextEndMarker">&nbsp;</div>
</blockquote>
</article>]]></description>
                <author><![CDATA[vjrhymes]]></author>
                </item>

                
                <item>
                <title><![CDATA[【HD Live Performances】FEED - Grammy Awards S01E66 2024 - Main Show 1080i HDTV Backhaul FLAC 5.1 H.264-TrollHD]]></title>
                <link><![CDATA[https://sharemania.us/threads/grammy-awards-s01e66-2024-main-show-1080i-hdtv-backhaul-flac-5-1-h-264-trollhd.238136/]]></link>
                <description><![CDATA[<article>
<blockquote class="messageText SelectQuoteContainer ugc baseHtml">
Is anyone able to cap the video of Delta Goodrem's performance at BBC Radio 2's piano room? Would love to be able to see the full thing! <img src="styles/default/xenforo/smilies/big_smile-48.png" class="mceSmilie" alt=":)" title="Smile    :)"><br>
<br>
<a href="https://www.bbc.co.uk/iplayer/episode/p0h4593g/radio-2s-piano-room-piano-room-month-2024-delta-goodrem-ft-gary-barlow" target="_blank" class="externalLink" rel="nofollow">https://www.bbc.co.uk/iplayer/episo...-room-month-2024-delta-goodrem-ft-gary-barlow</a>
<div class="messageTextEndMarker">&nbsp;</div>
</blockquote>
</article>]]></description>
                <author><![CDATA[melodie]]></author>
                </item>

                
                <item>
                <title><![CDATA[【Albums (lossless)】FLAC - Various - Pokemon - Para Ser Un Maestro (OST Latin-American) (1999)]]></title>
                <link><![CDATA[https://sharemania.us/threads/various-pokemon-para-ser-un-maestro-ost-latin-american-1999.238140/]]></link>
                <description><![CDATA[<article>
<blockquote class="messageText SelectQuoteContainer ugc baseHtml">
V Factory - Love truck ( TIDAL,APPLE MUZIC, CLEAN VOB - RIP VIDEO)<br>
<br>
I NEED FOR UPSCALE
<div class="messageTextEndMarker">&nbsp;</div>
</blockquote>
</article>]]></description>
                <author><![CDATA[rominuchiis]]></author>
                </item>

                </channel></rss>